<?xml version="1.0" encoding="UTF-8"?>
<!-- Generator: Adobe Illustrator 25.2.3, SVG Export Plug-In . SVG Version: 6.00 Build 0)  -->
<svg version="1.1" id="Layer_1" xmlns="http://www.w3.org/2000/svg" xmlns:xlink="http://www.w3.org/1999/xlink" x="0px" y="0px" viewBox="0 0 193.8 36.6" style="enable-background:new 0 0 193.8 36.6;" xml:space="preserve">
<style type="text/css">
	.st0{fill:#0B0146;}
	.st1{fill:#1B70F0;}
	.st2{fill:#F0FAFF;}
</style>
<g>
	<g>
		<path class="st0" d="M49.7,8.7c2.4,0,3.3,0.9,3.3,2.8v0.9c0,1-0.4,1.8-1.2,2.3c0.9,0.5,1.3,1.2,1.3,2.3v1c0,1.8-0.8,2.9-3.1,2.9    H39.8c-0.3,0-0.5-0.2-0.5-0.5V9.2c0-0.3,0.2-0.5,0.5-0.5H49.7z M41.4,13.9H49c1.5,0,1.9-0.5,1.9-1.3V12c0-0.9-0.5-1.3-1.6-1.3    h-7.7c-0.1,0-0.2,0.1-0.2,0.2V13.9z M41.4,15.5v3.2c0,0.2,0.1,0.2,0.2,0.2h7.7c1.2,0,1.6-0.4,1.6-1.3v-0.8c0-0.9-0.4-1.4-2-1.4    H41.4z"/>
		<path class="st0" d="M57.1,8.7c0.2,0,0.3,0.1,0.3,0.3v7.1c0,2.1,0.7,2.8,2.7,2.8h7.1c0.2,0,0.3,0.1,0.3,0.3v1.4    c0,0.2-0.1,0.3-0.3,0.3h-7.1c-3.5,0-4.8-1.3-4.8-4.6V9c0-0.2,0.1-0.3,0.3-0.3H57.1z"/>
		<path class="st0" d="M79.2,8.7c3.5,0,4.8,1.3,4.8,4.6v3c0,3.4-1.3,4.6-4.8,4.6h-5.3c-3.5,0-4.8-1.3-4.8-4.6v-3    c0-3.4,1.3-4.6,4.8-4.6H79.2z M71.2,16.1c0,2.1,0.7,2.8,2.7,2.8h5.2c2.1,0,2.7-0.7,2.7-2.8v-2.7c0-2.1-0.6-2.8-2.7-2.8H74    c-2.1,0-2.7,0.7-2.7,2.8V16.1z"/>
		<path class="st0" d="M98.9,8.7c0.2,0,0.3,0.1,0.3,0.3v1.4c0,0.2-0.1,0.3-0.3,0.3h-7.8c-2.1,0-2.7,0.7-2.7,2.8v2.6    c0,2.1,0.7,2.8,2.7,2.8h7.8c0.2,0,0.3,0.1,0.3,0.3v1.4c0,0.2-0.1,0.3-0.3,0.3H91c-3.5,0-4.8-1.3-4.8-4.6v-3c0-3.4,1.3-4.6,4.8-4.6    H98.9z"/>
		<path class="st0" d="M103,8.7c0.2,0,0.3,0.1,0.3,0.3v4.9h2.8c1.4,0,1.7-0.1,2.4-0.9l3.1-4.1c0.1-0.1,0.2-0.2,0.4-0.2h1.7    c0.2,0,0.3,0.2,0.2,0.4l-3.4,4.4c-0.5,0.6-0.8,1-1.2,1.3c0.5,0.3,1,0.7,1.5,1.3l3.7,4.5c0.1,0.1,0.1,0.4-0.2,0.4h-1.8    c-0.3,0-0.3-0.1-0.4-0.2l-3.3-4.2c-0.6-0.7-1.1-1-2.4-1h-2.9v5.1c0,0.2-0.1,0.3-0.3,0.3h-1.5c-0.2,0-0.3-0.1-0.3-0.3V9    c0-0.2,0.1-0.3,0.3-0.3H103z"/>
		<path class="st0" d="M128,8.7c0.2,0,0.3,0.1,0.3,0.3v1.3c0,0.2-0.1,0.3-0.3,0.3H119c-0.8,0-1.2,0.5-1.2,1.2v0.7    c0,0.8,0.3,1.2,1.2,1.2h6.8c1.9,0,2.9,1,2.9,2.9v1.4c0,1.6-0.9,2.8-2.9,2.8H116c-0.2,0-0.3-0.1-0.3-0.3v-1.3    c0-0.2,0.1-0.3,0.3-0.3h9.4c0.8,0,1.2-0.5,1.2-1.2v-0.9c0-0.8-0.3-1.2-1.1-1.2h-6.8c-1.9,0-2.9-1-2.9-2.9v-1.3    c0-1.7,0.9-2.8,2.9-2.8H128z"/>
		<path class="st0" d="M132.7,8.7c0.2,0,0.3,0.1,0.3,0.3v4.8h9V9c0-0.2,0.1-0.3,0.3-0.3h1.5c0.2,0,0.3,0.1,0.3,0.3v11.6    c0,0.2-0.1,0.3-0.3,0.3h-1.5c-0.2,0-0.3-0.1-0.3-0.3v-4.9h-9v4.9c0,0.2-0.1,0.3-0.3,0.3h-1.5c-0.2,0-0.3-0.1-0.3-0.3V9    c0-0.2,0.1-0.3,0.3-0.3H132.7z"/>
		<path class="st0" d="M148.5,8.7c0.2,0,0.3,0.1,0.3,0.3v11.6c0,0.2-0.1,0.3-0.3,0.3h-1.5c-0.2,0-0.3-0.1-0.3-0.3V9    c0-0.2,0.1-0.3,0.3-0.3H148.5z"/>
		<path class="st0" d="M163.6,8.7c0.2,0,0.3,0.1,0.3,0.3v1.3c0,0.2-0.1,0.3-0.3,0.3h-7.7c-2.1,0-2.7,0.7-2.7,2.8v0.4h10.3    c0.2,0,0.3,0.1,0.3,0.3v1.1c0,0.2-0.1,0.3-0.3,0.3h-10.3v0.5c0,2.1,0.7,2.8,2.7,2.8h7.7c0.2,0,0.3,0.1,0.3,0.3v1.3    c0,0.2-0.1,0.3-0.3,0.3h-7.7c-3.5,0-4.8-1.3-4.8-4.6v-3c0-3.4,1.3-4.6,4.8-4.6H163.6z"/>
		<path class="st0" d="M167.8,8.7c0.2,0,0.3,0.1,0.3,0.3v7.1c0,2.1,0.7,2.8,2.7,2.8h7.1c0.2,0,0.3,0.1,0.3,0.3v1.4    c0,0.2-0.1,0.3-0.3,0.3h-7.1c-3.5,0-4.8-1.3-4.8-4.6V9c0-0.2,0.1-0.3,0.3-0.3H167.8z"/>
		<path class="st0" d="M188.5,8.7c3.8,0,5.3,1.5,5.3,4.9V16c0,3.4-1.5,4.9-5.3,4.9h-8.1c-0.3,0-0.5-0.2-0.5-0.5V9.2    c0-0.3,0.2-0.5,0.5-0.5H188.5z M182.1,18.7c0,0.1,0.1,0.2,0.2,0.2h6.2c2.3,0,3.2-0.8,3.2-3.1v-2c0-2.3-0.8-3.1-3.2-3.1h-6.2    c-0.1,0-0.2,0.1-0.2,0.2V18.7z"/>
	</g>
	<path class="st1" d="M30.7,26.6l-14.9,10c-0.2,0.1-0.5,0.1-0.7,0l-14.9-10C0.1,26.4,0,26.2,0,26V0.6C0,0.3,0.3,0,0.7,0h29.7   C30.7,0,31,0.3,31,0.6V26C31,26.2,30.9,26.4,30.7,26.6z"/>
	<path class="st2" d="M25.9,8.2h-3.1c-0.4,0-0.7-0.3-0.7-0.7V4.4c0-0.4-0.3-0.7-0.7-0.7h-7.9c-0.2,0-0.3,0.1-0.5,0.2L9.1,8   C8.9,8.1,8.8,8.2,8.6,8.2H5.1c-0.4,0-0.7,0.3-0.7,0.7v11.9c0,0.4,0.3,0.7,0.7,0.7h3.1c0.4,0,0.7,0.3,0.7,0.7v3.1   c0,0.4,0.3,0.7,0.7,0.7h7.9c0.2,0,0.3-0.1,0.5-0.2l4.1-4c0.1-0.1,0.3-0.2,0.5-0.2h3.5c0.4,0,0.7-0.3,0.7-0.7v-3.1   c0-0.4-0.3-0.7-0.7-0.7h-3.1c-0.4,0-0.7-0.3-0.7-0.7v-3.1c0-0.4,0.3-0.7,0.7-0.7h3.1c0.4,0,0.7-0.3,0.7-0.7V8.8   C26.6,8.5,26.3,8.2,25.9,8.2z M22.2,20.8c0,0.4-0.3,0.7-0.7,0.7h-12c-0.4,0-0.7-0.3-0.7-0.7v-3.1c0-0.4,0.3-0.7,0.7-0.7h12   c0.4,0,0.7,0.3,0.7,0.7V20.8z M22.2,11.9c0,0.4-0.3,0.7-0.7,0.7h-12c-0.4,0-0.7-0.3-0.7-0.7V8.8c0-0.4,0.3-0.7,0.7-0.7h12   c0.4,0,0.7,0.3,0.7,0.7V11.9z"/>
</g>
</svg>